<?xml version="1.0" encoding="UTF-8" standalone="no"?>
<!DOCTYPE svg PUBLIC "-//W3C//DTD SVG 20010904//EN" "http://www.w3.org/TR/2001/REC-SVG-20010904/DTD/svg10.dtd">
<svg version="1.0" xmlns="http://www.w3.org/2000/svg" width="1195.000000pt" height="672.000000pt" viewBox="0 0 1195.000000 672.000000" preserveAspectRatio="xMidYMid meet">

<g transform="translate(0.000000,672.000000) scale(0.100000,-0.100000)" fill="#000000" stroke="none">
<path d="M7920 4613 l0 -1463 -239 0 c-132 0 -246 -3 -255 -6 -14 -6 -16 39 -16 465 l0 471 -70 0 -70 0 0 -465 0 -465 -255 0 -255 0 0 838 0 839 -67 -1 -68 -1 0 -837 0 -837 -243 -3 c-134 -2 -246 -1 -248 1 -2 2 -4 177 -4 388 l0 383 -67 0 -68 0 3 -385 2 -385 -1128 0 c-621 0 -1131 -2 -1133 -4 -2 -2 -2 -34 -1 -70 l4 -66 3249 0 3250 0 -3 68 -3 67 -237 0 -238 0 0 177 0 178 -65 0 -65 0 0 -175 0 -175 -143 0 c-79 0 -178 -3 -220 -6 l-77 -7 0 952 0 951 -65 0 -65 0 0 -945 0 -945 -172 -1 c-95 0 -192 -2 -215 -5 l-43 -6 0 361 0 361 -70 0 -70 0 0 -355 0 -355 -192 0 c-106 0 -203 -3 -215 -6 l-23 -6 0 1465 0 1465 -70 4 -70 3 0 -1462z"/>
<path d="M2035 5605 c-233 -43 -442 -161 -645 -365 -219 -221 -360 -464 -407 -700 -44 -225 57 -376 260 -387 60 -4 93 2 202 32 260 72 472 91 925 82 332 -7 418 -17 615 -74 172 -49 262 -52 348 -9 105 51 155 155 143 294 -34 369 -416 871 -797 1046 -87 40 -188 71 -279 85 -87 14 -279 12 -365 -4z"/>
<path d="M1916 4108 c-11 -126 -33 -264 -76 -478 -52 -256 -64 -346 -58 -436 7 -100 41 -157 118 -196 78 -40 142 -49 330 -49 188 0 252 9 330 49 41 20 62 40 85 77 29 48 30 51 29 174 -1 108 -8 158 -47 351 -53 258 -73 378 -83 503 l-7 87 -307 0 -307 0 -7 -82z"/>
<path d="M6883 2695 c-129 -36 -232 -114 -280 -213 -25 -50 -28 -68 -28 -152 0 -76 4 -104 22 -142 48 -105 157 -174 392 -248 87 -28 148 -54 175 -74 133 -101 83 -260 -92 -297 -43 -9 -79 -9 -145 -1 -97 12 -167 40 -238 94 l-45 35 -61 -86 -62 -86 37 -33 c162 -144 520 -176 724 -65 27 15 72 51 98 80 64 70 90 140 90 242 0 114 -20 163 -99 242 -73 73 -140 106 -325 161 -165 49 -226 89 -246 159 -15 51 -2 97 40 139 85 85 284 81 431 -9 28 -18 55 -29 60 -24 12 13 92 164 88 167 -28 25 -121 72 -184 92 -101 33 -272 42 -352 19z"/>
<path d="M674 2681 c-2 -2 -4 -28 -4 -57 0 -28 -13 -265 -29 -525 -17 -261 -33 -529 -37 -596 l-7 -123 112 0 c61 0 111 1 111 3 0 1 11 210 24 465 13 255 26 465 28 467 1 1 79 -165 173 -371 l170 -374 80 0 80 0 110 243 c60 133 137 302 171 375 l62 134 6 -84 c4 -45 13 -222 21 -393 8 -170 18 -345 21 -387 l6 -78 109 0 109 0 0 38 c0 20 -16 289 -35 597 -19 308 -36 584 -37 614 l-3 53 -125 -1 c-69 -1 -128 -5 -132 -9 -10 -10 -337 -749 -344 -778 -6 -23 -24 -34 -24 -15 0 4 -50 116 -111 247 -62 132 -144 310 -183 397 l-71 158 -123 2 c-68 1 -126 0 -128 -2z"/>
<path d="M5183 2682 c-92 -2 -123 -6 -123 -16 0 -7 -18 -298 -40 -647 -22 -349 -40 -635 -40 -636 0 -2 52 -3 115 -3 l115 0 0 53 c0 28 9 221 20 427 11 206 20 397 20 425 0 28 4 45 9 40 4 -6 75 -154 156 -330 81 -176 159 -344 172 -373 l25 -53 79 3 80 3 176 372 c97 205 179 371 181 368 5 -4 41 -767 42 -877 l0 -58 115 0 115 0 0 33 c0 41 -57 1075 -66 1185 l-6 83 -130 -3 -130 -3 -157 -340 c-86 -187 -170 -370 -186 -407 -16 -37 -32 -64 -36 -60 -6 7 -167 356 -296 642 -41 91 -78 167 -81 170 -4 3 -62 4 -129 2z"/>
<path d="M7660 2683 c0 -2 0 -294 0 -650 l0 -648 307 0 c261 0 318 3 372 18 189 52 277 161 275 347 -1 159 -69 245 -234 297 -9 3 0 10 24 18 56 20 107 65 136 121 33 63 40 188 15 263 -19 59 -81 132 -138 165 -93 54 -130 59 -455 65 -166 3 -302 5 -302 4z m594 -208 c51 -26 74 -59 82 -115 13 -96 -39 -186 -121 -209 -22 -6 -106 -11 -187 -11 l-148 0 0 181 0 181 168 -4 c142 -3 173 -6 206 -23z m-14 -536 c92 -20 140 -81 140 -179 0 -66 -20 -111 -62 -143 -48 -37 -103 -46 -280 -47 l-158 0 0 190 0 190 155 0 c84 0 177 -5 205 -11z"/>
<path d="M3338 2331 c-203 -67 -310 -233 -310 -487 -1 -213 79 -362 235 -439 166 -81 346 -68 509 37 27 16 48 34 48 40 0 5 -25 38 -56 73 l-56 63 -66 -35 c-63 -33 -72 -35 -142 -31 -108 7 -170 42 -213 123 -19 35 -22 56 -22 170 0 144 14 192 71 248 50 50 82 62 169 62 72 0 86 -3 140 -33 l60 -33 38 43 c20 24 47 55 58 70 l20 27 -48 35 c-81 60 -143 79 -268 83 -87 2 -122 -1 -167 -16z"/>
<path d="M4208 2331 c-117 -38 -207 -118 -261 -233 -34 -72 -47 -142 -47 -246 0 -294 185 -492 460 -492 274 0 453 195 454 495 2 296 -185 496 -463 494 -55 0 -107 -7 -143 -18z m239 -182 c97 -47 150 -169 141 -327 -10 -178 -96 -282 -233 -282 -99 0 -176 60 -212 165 -21 60 -24 228 -5 292 41 138 188 211 309 152z"/>
<path d="M9003 2326 c-57 -19 -171 -73 -192 -92 -1 -1 16 -37 38 -78 l42 -75 45 29 c92 58 254 72 340 29 57 -28 79 -63 88 -136 l7 -53 -138 0 c-205 0 -313 -29 -390 -102 -107 -102 -102 -313 9 -414 65 -58 98 -68 228 -69 110 0 118 1 182 33 37 18 78 46 92 63 l26 31 0 -56 0 -56 105 0 105 0 0 318 c0 187 -4 343 -11 377 -21 115 -87 203 -188 248 -38 18 -69 22 -181 24 -120 3 -143 0 -207 -21z m365 -601 c-3 -37 -14 -78 -25 -97 -54 -93 -254 -129 -325 -58 -24 24 -28 36 -28 84 0 106 55 135 254 136 l129 0 -5 -65z"/>
<path d="M9985 2336 c-70 -22 -122 -54 -159 -98 -87 -101 -85 -255 4 -346 52 -54 95 -75 231 -113 63 -17 130 -39 150 -49 58 -30 76 -96 38 -143 -55 -71 -253 -56 -381 28 -22 15 -41 25 -42 23 -1 -2 -22 -34 -46 -72 l-43 -70 34 -28 c136 -114 404 -143 564 -60 92 47 149 144 148 252 -1 152 -83 230 -301 286 -162 41 -202 66 -202 127 0 38 15 64 48 81 70 35 179 26 291 -25 72 -33 71 -32 71 -20 0 5 16 37 35 71 19 34 35 66 35 71 0 13 -140 76 -198 88 -70 15 -227 13 -277 -3z"/>
<path d="M10919 2332 c-142 -47 -263 -184 -300 -338 -16 -68 -16 -228 0 -294 28 -114 105 -221 197 -275 141 -83 370 -84 532 -3 91 46 93 52 46 130 l-39 66 -35 -19 c-147 -79 -321 -77 -409 4 -33 31 -71 115 -71 160 l0 37 315 0 315 0 0 85 c0 207 -78 353 -228 427 -59 29 -76 33 -166 35 -77 2 -114 -1 -157 -15z m208 -163 c61 -23 116 -99 129 -178 l7 -41 -212 0 c-234 0 -222 -4 -196 69 41 118 170 189 272 150z"/>
<path d="M2080 2326 c0 -3 38 -103 84 -223 151 -394 269 -718 268 -733 -2 -30 -52 -129 -82 -163 -39 -44 -87 -61 -150 -53 l-48 6 -11 -50 c-6 -27 -14 -67 -17 -89 -6 -40 -6 -40 32 -47 126 -24 237 2 317 76 95 87 93 84 418 974 60 165 109 301 109 303 0 1 -51 3 -114 3 l-113 0 -52 -177 c-66 -225 -164 -523 -172 -523 -5 0 -95 274 -182 555 l-43 140 -122 3 c-67 1 -122 1 -122 -2z"/>
</g>
</svg>